<svg xmlns="http://www.w3.org/2000/svg" xmlns:xlink="http://www.w3.org/1999/xlink" width="22" height="22"><defs><path id="a" d="M7.72.393l10.413 6.021a1 1 0 0 1 .365 1.366l-4.328 7.499a1 1 0 0 1-1.379.358L2.385 9.425a1 1 0 0 1-.466-.652L.79 3.423a1 1 0 0 1 .64-1.148L6.881.318a1 1 0 0 1 .84.075z"/><linearGradient id="b" x1="34.898%" x2="75%" y1="76.158%" y2="6.699%"><stop offset="0%" stop-color="#FFA864"/><stop offset="100%" stop-color="#EF541D"/></linearGradient></defs><g fill="none" fill-rule="evenodd" transform="rotate(11 -5.712 11.683)"><mask id="c" fill="#fff"><use xlink:href="#a"/></mask><use fill="#FFAC6C" xlink:href="#a"/><path fill="url(#b)" d="M5.421 2.412l11.707 6.85a1 1 0 0 1 .369 1.348l-2.263 4.068-16.52-9.857L5.42 2.412z" mask="url(#c)" transform="scale(1 -1) rotate(-60 -6.664 0)"/><path fill="#FFE4CF" d="M1.375 2.32l4.724-.808a2 2 0 0 1 1.317.228l9.541 5.362a2 2 0 0 1 .997 2.044l-.071.47 1.37-2.94C11.507 1.984 7.544-.334 7.364-.277c-.18.056-2.176.921-5.99 2.596z" mask="url(#c)"/><path stroke="#31323D" stroke-linecap="round" stroke-linejoin="round" stroke-width="1.5" d="M8.096-.256l10.412 6.02a1.75 1.75 0 0 1 .64 2.39l-4.329 7.5a1.75 1.75 0 0 1-2.39.64l-.022-.013L2 10.07a1.75 1.75 0 0 1-.815-1.141L.057 3.578a1.75 1.75 0 0 1 1.12-2.009L6.629-.388a1.75 1.75 0 0 1 1.468.132z"/><circle cx="5.526" cy="5.456" r="1.75" fill="#31323D"/></g></svg>